<svg xmlns="http://www.w3.org/2000/svg" width="566.604" height="291.822" viewBox="0 0 566.604 291.822"><g transform="translate(-799.4 -476.603)"><path d="M3676.4,3235l32.939-49.117,19.541,10.15L3702.627,3235Z" transform="translate(-2877 -2467)" fill="#e4eafc"/><path d="M3716.8,3235.006l74.558-151.473,43.362-59.14,43.694,29.477-24.321,114.209-75.043,66.927Z" transform="translate(-2877 -2467)" fill="#eaeeff"/><path d="M3895,3134.448l5.717-82.249,58.471-63.484,23.8,20.867,88.456,202.578Z" transform="translate(-2877 -2467)" fill="#eaeeff"/><path d="M3958.442,2988.715l84.095,224.774h28.453l-87.634-205.029Z" transform="translate(-2877 -2467)" fill="#fffcea"/><path d="M4080.315,3235.194l-100.47-234.125,55.96-57.465L4243,3073.027l.008,162.008Z" transform="translate(-2877 -2467)" fill="#eaeeff"/><path d="M3834,3024.393l-116.654,210.6h-14.853l86.767-149.869Z" transform="translate(-2877 -2467)" fill="#fffcea"/><path d="M3778.889,3235.042,3927.3,3100.565,4144.832,3234.8l-47.325.225Z" transform="translate(-2877 -2467)" fill="#e8ecff"/><path d="M3810.109,3235.425l115.629-90.623,171.817,90.235Z" transform="translate(-2877 -2467)" fill="#dfe2fa"/><g transform="translate(0 -1)"><path d="M3839.632,3182.408l-12.07,53.568h-9.493l11.488-46.261Z" transform="translate(-2877 -2467)" fill="#e4eafc"/><path d="M3919.359,3107.221l-2.828,128.86h22.451l-6.214-132.372-5.63-3.014Z" transform="translate(-2877 -2467)" fill="#e4eafc"/><path d="M3870.045,3236.07l11.343-93.865-12.351,10.539-11.908,83.326Z" transform="translate(-2877 -2467)" fill="#e4eafc"/><path d="M4003.428,3236.229l-18.976-99.775,12.725,8.772,20.919,91Z" transform="translate(-2877 -2467)" fill="#e4eafc"/><path d="M4029.644,3166l21.932,70.066h16.17l-24.372-63.265Z" transform="translate(-2877 -2467)" fill="#e4eafc"/></g></g></svg>