<svg xmlns="http://www.w3.org/2000/svg" width="35" height="35" viewBox="0 0 35 35"><g transform="translate(-511 -128)"><path d="M954.25,366.407h0a17.5,17.5,0,0,1-17.5-17.5h0a17.5,17.5,0,0,1,17.5-17.5h0a17.5,17.5,0,0,1,17.5,17.5h0A17.5,17.5,0,0,1,954.25,366.407Z" transform="translate(-425.75 -203.407)" fill="#4053b2"/><g transform="translate(-436.13 -210.407)"><path d="M969.374,355.789h-2.892v10.358h-4.314V355.789H960.13v-3.65h2.039v-2.37a5.131,5.131,0,0,1,.332-1.873,3.641,3.641,0,0,1,1.3-1.73,4.552,4.552,0,0,1,2.7-.759l3.2.024v3.556h-2.323a.919.919,0,0,0-.593.19,1,1,0,0,0-.308.806v2.157h3.271Z" transform="translate(0 0)" fill="#fff"/></g></g></svg>