<svg xmlns="http://www.w3.org/2000/svg" width="35" height="35" viewBox="0 0 35 35"><g transform="translate(-605 -128)"><path d="M954.75,1375.58h0a17.5,17.5,0,0,1-17.5-17.5h0a17.5,17.5,0,0,1,17.5-17.5h0a17.5,17.5,0,0,1,17.5,17.5h0A17.5,17.5,0,0,1,954.75,1375.58Z" transform="translate(-332.25 -1212.58)" fill="#4053b2"/><g transform="translate(610 133)"><circle cx="3.052" cy="3.052" r="3.052" transform="translate(9.104 9.104)" fill="#fff"/><path d="M15.97,3H8.34A5.347,5.347,0,0,0,3,8.342v7.63a5.347,5.347,0,0,0,5.342,5.34h7.63a5.347,5.347,0,0,0,5.34-5.342V8.34A5.347,5.347,0,0,0,15.97,3ZM12.156,16.734a4.578,4.578,0,1,1,4.578-4.578A4.582,4.582,0,0,1,12.156,16.734ZM17.5,7.578a.763.763,0,1,1,.763-.763A.763.763,0,0,1,17.5,7.578Z" fill="#fff"/></g></g></svg>