<svg xmlns="http://www.w3.org/2000/svg" width="35" height="35" viewBox="0 0 35 35"><g transform="translate(-464 -128)"><path d="M954.75,1158.57h0a17.5,17.5,0,0,1-17.5-17.5h0a17.5,17.5,0,0,1,17.5-17.5h0a17.5,17.5,0,0,1,17.5,17.5h0A17.5,17.5,0,0,1,954.75,1158.57Z" transform="translate(-473.25 -995.57)" fill="#4053b2"/><g transform="translate(471 137)"><path d="M969.261,1144.933v.528a11.923,11.923,0,0,1-.757,4.129,12.312,12.312,0,0,1-2.248,3.762,11.155,11.155,0,0,1-3.67,2.753,11.975,11.975,0,0,1-5.024,1.055,11.75,11.75,0,0,1-3.349-.482,11.39,11.39,0,0,1-2.982-1.354q.482.046.986.046a8.185,8.185,0,0,0,2.73-.459,8.555,8.555,0,0,0,2.386-1.284,4.121,4.121,0,0,1-2.386-.837,3.972,3.972,0,0,1-1.445-2.03,4.1,4.1,0,0,0,.757.069,4.245,4.245,0,0,0,1.078-.138,3.981,3.981,0,0,1-1.675-.768,4.09,4.09,0,0,1-1.181-1.446,4.294,4.294,0,0,1-.447-1.824v-.069a3.861,3.861,0,0,0,1.881.528,4.149,4.149,0,0,1-1.342-1.48,4.031,4.031,0,0,1-.493-1.961,4.1,4.1,0,0,1,.551-2.065,11.763,11.763,0,0,0,8.488,4.312,4.77,4.77,0,0,1-.092-.941,4.014,4.014,0,0,1,.551-2.065,4.157,4.157,0,0,1,1.5-1.5,3.97,3.97,0,0,1,2.053-.562,4.084,4.084,0,0,1,3.005,1.308,8.007,8.007,0,0,0,2.615-1.009,3.987,3.987,0,0,1-.7,1.319,4.238,4.238,0,0,1-1.113.975,8.374,8.374,0,0,0,2.386-.665A8.625,8.625,0,0,1,969.261,1144.933Z" transform="translate(-951.23 -1140.849)" fill="#fff"/></g></g></svg>