<svg xmlns="http://www.w3.org/2000/svg" width="35" height="35" viewBox="0 0 35 35"><g transform="translate(-558 -128)"><path d="M954.75,1375.58h0a17.5,17.5,0,0,1-17.5-17.5h0a17.5,17.5,0,0,1,17.5-17.5h0a17.5,17.5,0,0,1,17.5,17.5h0A17.5,17.5,0,0,1,954.75,1375.58Z" transform="translate(-379.25 -1212.58)" fill="#4053b2"/><g transform="translate(-386.27 -1221.8)"><path d="M972.173,1367.142q0,1.746-.024,2.177-.1,1.412-.191,2.057a5.041,5.041,0,0,1-.311,1.172,2.346,2.346,0,0,1-.574.909,2.756,2.756,0,0,1-1.459.765q-4.544.335-9.686.239-3.013-.049-4.293-.108a14.339,14.339,0,0,1-1.9-.179,2.8,2.8,0,0,1-1.411-.741,3.249,3.249,0,0,1-.67-1.315,4.479,4.479,0,0,1-.179-.741q-.06-.383-.108-1.148a49.329,49.329,0,0,1,0-6.17l.143-1.172a5.558,5.558,0,0,1,.263-1.148,2.626,2.626,0,0,1,.622-.957,3.054,3.054,0,0,1,1.411-.717,24.293,24.293,0,0,1,2.906-.191q2.308-.072,5.011-.072t5.01.084q2.308.084,2.93.179a2.91,2.91,0,0,1,.921.359,2.362,2.362,0,0,1,.706.622,4.341,4.341,0,0,1,.55,1.292,7.253,7.253,0,0,1,.239,1.363q0,.12.072,1.268C972.164,1365.253,972.173,1365.982,972.173,1367.142Zm-9.638,1.172q1.889-.956,2.679-1.387l-5.62-2.966v5.907Q960.573,1369.322,962.534,1368.314Z" transform="translate(0)" fill="#fff"/></g></g></svg>